<?xml version="1.0" encoding="UTF-8" standalone="no"?>
<svg
   id="layer"
   data-name="layer"
   viewBox="0 0 1920 1920"
   version="1.1"
   sodipodi:docname="logo.svg"
   inkscape:version="1.3.2 (091e20ef0f, 2023-11-25, custom)"
   xmlns:inkscape="http://www.inkscape.org/namespaces/inkscape"
   xmlns:sodipodi="http://sodipodi.sourceforge.net/DTD/sodipodi-0.dtd"
   xmlns="http://www.w3.org/2000/svg"
   xmlns:svg="http://www.w3.org/2000/svg">
  <sodipodi:namedview
     id="namedview23"
     pagecolor="#ffffff"
     bordercolor="#000000"
     borderopacity="0.25"
     inkscape:showpageshadow="2"
     inkscape:pageopacity="0.0"
     inkscape:pagecheckerboard="0"
     inkscape:deskcolor="#d1d1d1"
     inkscape:zoom="0.39635417"
     inkscape:cx="958.7385"
     inkscape:cy="960"
     inkscape:window-width="1707"
     inkscape:window-height="993"
     inkscape:window-x="0"
     inkscape:window-y="0"
     inkscape:window-maximized="1"
     inkscape:current-layer="layer" />
  <defs
     id="defs1">
    <style
       id="style1">.cls-1{fill:#272738;}.cls-2{fill:#d2d2f9;}.cls-3{fill:none;stroke:#d2d2f9;stroke-miterlimit:10;stroke-width:3px;}.cls-4{fill:#ffd58a;}.cls-5{fill:#fff5c5;}.cls-6{fill:#fff;}</style>
  </defs>
  <circle
     class="cls-1"
     cx="1000.42"
     cy="914.77"
     r="597.5"
     id="circle1" />
  <path
     class="cls-2"
     d="M-187,642.67C95.53,468.46,547.61,210.27,881.28,209.44c89.34-.25,182.22,20.71,253,77.73,216.42,174.45,115.62,543.89,365.2,713.4,126.57,86.49,290.35,83.71,435.05,53.83,163.66-34.23,318.69-100.59,467.6-175.3-148.85,74.86-303.86,141.37-467.51,175.76-144.83,30.08-308.84,32.94-435.65-53.55-250.23-169.8-149.65-538.9-365.72-712.85-70.48-56.7-163-77.44-251.92-77.11-45.76,0-91.73,5-136.79,12.8-205.57,38.09-398,126.15-582.8,221.32C43.35,507.32-72,574.74-185.41,645.21l-1.59-2.54Z"
     id="path1" />
  <path
     class="cls-2"
     d="M-191.61,676C79.86,504.37,463.93,281.4,783,240.48c106.52-13.18,222.09-6.25,314.33,53.7C1357.55,465.69,1219.1,888,1549.78,1036.42c123.18,54.46,263.72,45.66,392.49,17.43C2105,1017.25,2259,949.71,2407,873.84c-147.32,76.25-302,143.76-464.58,180.6-128.89,28.39-269.62,37.29-393-17.14-331.55-148.69-193.3-570.66-453.05-741.65-91.95-59.61-207-66.36-313.12-53.14-18.14,2.18-37.5,5.39-55.49,8.64-202.67,39.71-392,128.42-573.54,224.3q-88.09,47.16-174,98.25T-190,678.49l-1.61-2.53Z"
     id="path2" />
  <path
     class="cls-2"
     d="M-196.22,709.25C26.76,564.86,257.41,427.93,507,334.63c66.32-24.28,134.34-44.95,203.66-58.73,124.69-24.47,264.73-28,375.27,43.46,232.68,152.2,147.7,512.34,384,679.39,123.64,89.36,286.56,92.73,431.29,64.81,179.87-35.08,349-110.53,510.71-195-160.45,85.07-331,160.32-510.57,195.73-144.94,28.11-308.16,24.8-432.11-64.63C1232.27,832.3,1317.08,472.57,1084.94,320.9,974.76,249.77,835.28,253.55,711.08,278c-28.23,5.7-57.08,12.53-84.78,20.34C450.21,348.19,284.59,429.17,124.87,517.41,74,545.67,23.82,575.09-25.93,605.26q-85.21,51.81-168.65,106.5l-1.64-2.51Z"
     id="path3" />
  <path
     class="cls-2"
     d="M-200.84,742.54C-62.93,650.3,78.44,562.5,225.4,485.32c143.32-74.66,292.44-141.79,450.38-178.57C886.08,258.36,1099.68,279.57,1202,495c71.69,148.26,83.47,327.14,197.77,453,103,114.47,263,146,410.9,130.38,215.42-22.63,417.14-116.08,606.34-214.69-189.58,100.54-390.76,192.3-606.25,215.68-148.36,15.77-308.45-15.72-412-130.47-114.55-125.89-126.55-304.84-198.34-453.16C1098.36,281.22,885.58,260.59,676.27,308.92c-28,6.49-56.61,14.08-84.06,22.56-166.53,51.53-323.42,130.2-474.69,216C67.22,576.16,17.1,606.2-32,636.79Q-116.53,689.47-199.17,745l-1.67-2.5Z"
     id="path4" />
  <path
     class="cls-2"
     d="M-205.45,775.84C71.09,587.44,534.73,292,875.18,311.4c143.48,8.43,253.25,78.11,316.05,208.16,58.8,118.83,79.42,254.1,149.88,367.52,91.21,150.74,258.71,207.35,428.21,196.83,228.92-14.42,452.94-118.12,652.35-225.83l.3.55c-199.4,107.91-423.53,211.84-652.59,226.43-170,10.67-338-46.09-429.56-197.18-70.6-113.4-91.35-248.71-150.21-367.51C1127.08,391.05,1017.75,321.74,875,313.51,630.31,300,340.91,445.76,131.65,565c-28.31,16.16-57.62,33.78-85.5,50.69-84.91,51.68-168,106.3-249.9,162.63l-1.7-2.47Z"
     id="path5" />
  <path
     class="cls-2"
     d="M-210.07,809.13C71.35,613.05,663.55,215.45,1008.87,370.86c304.33,140.84,164.35,579.22,559.83,696.5,225.07,62.28,477.38-28.74,681.52-123.38,59.86-28.24,118.55-58.89,176.34-91.15-55,33.32-116.85,63.29-175.94,92-204.22,94.88-456.92,186.14-682.31,123.9-396.59-117.52-257-555.88-560.3-696-106.54-48.33-228.79-40.35-340.39-15.36-258.17,62.15-490.5,200-711.95,342.35q-83,54.46-164,111.84l-1.73-2.45Z"
     id="path6" />
  <path
     class="cls-2"
     d="M-214.68,842.42c254.07-183,610.51-417.08,920.1-471.69,170.24-30.21,341,0,440,154.65,63.08,97.76,89.73,213.15,143,315.82,70.5,142.65,191.74,224.77,348.92,244.85,148.39,18.2,297.58-17.87,436.48-68.19,124.13-45.61,242.76-105.05,357.65-170.28C2320,914.14,2197.38,972.79,2074.21,1019c-139,50.48-288.48,86.68-437.08,68.54-157.7-20-279.57-102.54-350.32-245.51-53.35-102.59-80-217.89-143.11-315.55C1045.19,372.68,875.09,342.86,705.81,373c-81.35,14.11-160.43,39.79-236.93,70.52C285.11,518.38,114.18,621.21-50.48,731.18q-82.23,55.37-162.44,113.67l-1.76-2.43Z"
     id="path7" />
  <path
     class="cls-2"
     d="M-219.3,875.72C51.39,675.88,546.25,333.79,892.53,392c373.44,68.89,264.36,489.64,570,645.94a484.6,484.6,0,0,0,134,45.91c163.59,30,330.85-11.14,484.07-68.27C2204.08,970,2323.45,905.2,2436.9,843.28c-114.29,66.16-232.32,126.56-355.89,173.5-153.39,57.33-321,98.59-484.84,68.63a486.36,486.36,0,0,1-134.49-46C1155.38,883,1264,462.44,892.14,394.18,624.83,350.34,287.84,540.75,67.07,680.35c-27.48,17.46-55.75,36.2-82.77,54.36-68.48,46.08-135.59,94.15-201.8,143.41l-1.8-2.4Z"
     id="path8" />
  <path
     class="cls-2"
     d="M-223.91,909C50.43,701.39,625.84,286.64,976.68,445.77c260.08,119.52,202.81,465.61,486.59,600.15,61.08,29.85,128.59,45.51,196.29,49.73,146.7,8.67,291.77-30.18,427.63-82.53,122.95-48,240.37-109.19,354-176l.65,1.09c-113.7,67-231.14,128.24-354.15,176.34-136,52.51-281.36,91.48-428.27,82.87-67.94-4.2-135.68-19.88-197-49.8C1177.61,912.51,1235,567,975.74,447.83,838.06,385.76,679.89,414.68,541.85,461,261.3,560.48,13.93,733.47-222.09,911.39l-1.82-2.38Z"
     id="path9" />
  <path
     class="cls-2"
     d="M-228.53,942.31C41.09,732.61,565.91,347.22,919.81,453.07c330.38,102.49,224.19,515,613.72,625.86,246.08,67.39,521.32-40,739.89-150.76,58.65-30.11,116.14-62.46,172.7-96.35l.73,1.22c-56.56,33.93-114.06,66.33-172.74,96.48-218.94,111.13-494.36,218.66-741.1,151.25-390.78-111.25-284.74-523.51-613.88-625.44-123.49-37-255.82-12.36-375.59,27.29-284.68,99.91-533.45,278.92-770.21,462l-1.86-2.35Z"
     id="path10" />
  <path
     class="cls-2"
     d="M-233.14,975.6C33.8,762,553.9,370.85,909.48,477.82c295.7,90.93,245.93,438.23,532.74,573.08A523.67,523.67,0,0,0,1577,1093.79c241.45,39.92,490.8-60.83,702.13-169.61,58.39-30.56,115.61-63.32,171.9-97.61l.82,1.35c-56.29,34.33-113.53,67.13-171.95,97.74-211.61,109.06-461.3,210-703.24,170.1a525.53,525.53,0,0,1-135.32-43c-287.83-135.32-238-482.14-532.55-572.62-159.53-47.09-331,4.66-478.66,68.43-120.56,53.18-234.47,120.76-344,193.74-109.57,73.27-214.8,152.87-317.37,235.63l-1.88-2.34Z"
     id="path11" />
  <path
     class="cls-2"
     d="M-237.76,1008.9c247.22-203.76,618-482.46,940.71-521,132.42-16.69,271.15,16.74,361.68,119.65,66.78,73.86,106,166.75,158.73,250.12,43.14,69.77,98.71,133.45,170,175.28,70.74,42.14,152,65,233.89,71.17,229.5,15.58,457.9-79,657.47-183.93,58.14-31,115.11-64.18,171.14-98.86l.91,1.48c-56,34.72-113,67.93-171.2,99-199.82,105.14-428.57,200-658.48,184.42-82.18-6.13-163.82-29.1-234.86-71.38-71.63-42-127.52-105.92-170.85-175.94-52.75-83.24-91.91-176-158.57-249.72-90-102.25-228-135.39-359.61-118.72-40.79,4.64-81.28,13.29-120.81,24.34-182.37,52.78-347.81,150.91-504,256.85-108.69,74.52-212.88,155.45-314.3,239.58l-1.92-2.31Z"
     id="path12" />
  <path
     class="cls-2"
     d="M-242.37,1042.2c226.49-192.29,527.2-422,814.05-505.05,117.86-33.94,249.64-44.66,363.87,7.43,235.41,106.91,225.56,397.6,496.08,516.23,155.82,70.14,334.94,55.3,495.5,9.25,190.22-55,366.43-149.43,533.66-254l1,1.6c-55.8,35.11-112.56,68.73-170.5,100.22-115.87,62.76-236.68,117.78-363.59,154.18-161,46.25-340.71,61.13-497-9.19-271.6-119.14-261.53-409.41-496.19-516-113.7-51.78-244.81-41-362.1-7.17C453.64,574,342.23,629.93,236.3,693,66.72,794.73-90,916.4-240.42,1044.48l-2-2.28Z"
     id="path13" />
  <path
     class="cls-2"
     d="M-247,1075.49c117.71-103.21,239.8-202,369.12-290.42C217.52,720.14,317,660.46,422.47,613.4A1133.71,1133.71,0,0,1,538,569.11c140.55-45.43,301.26-58.1,431.4,23.23,56.57,34.88,100.83,86,138.29,140.15,99.12,147.91,162.45,275.38,341.23,342.34,108.11,41.2,227.18,45,340.6,27.28,179.43-28.52,348-103.17,506.4-190,57.69-31.87,114.21-65.85,169.76-101.32l1.11,1.73c-277.87,176.76-686.55,389-1018.71,264.5-179.51-67.24-243-194.75-342.46-343.12C1068.31,680,1024.3,629.21,968,594.54c-129.46-80.86-289.44-68.07-429.22-22.84-25.33,8-50.77,17.46-75.44,27.31C327.91,654.24,202.44,731.52,83.17,815.66-31.07,896.71-139.75,985.37-245,1077.75l-2-2.26Z"
     id="path14" />
  <path
     class="cls-2"
     d="M-251.6,1108.79c147-132.1,301.09-258.54,468.67-363.66C287,701.48,359.66,661.5,435.43,628.94c5.74-2.59,17-7.3,22.86-9.52,18.16-7.6,39.69-15.18,58-21.71C525,595,537.17,591,545.8,588.34c2.13-.76,26.69-7.53,29.82-8.36,112.48-29.52,232.09-34.82,340.26,13.42,144.08,62.27,206.2,207.07,300.27,321.68,77.23,95.35,172.54,155.45,292.08,183.58,207.59,48.14,427.2-16,616.87-101,120.24-54.27,234.79-120.44,345.46-192.08l1.2,1.86c-55.36,35.9-111.71,70.32-169.24,102.66-298.78,167.72-722,328.95-1019.69,78-88.4-76-142.2-181.45-215-270.77-41.45-50.92-92.54-95.07-153.07-121.5-107.58-48-226.64-42.57-338.48-13.19l-23.81,6.56c-2,.52-4,1.17-5.91,1.79-8.68,2.68-20.79,6.65-29.43,9.35-18.35,6.46-39.81,14.21-57.83,21.66l-11.48,4.56-11.33,4.94-22.64,9.89-2.83,1.24L408.27,644C223.13,730.26,56.86,851.82-100.13,981.42c-34.52,28.74-79.1,66.64-112.53,96.69l-36.93,32.9-2-2.22Z"
     id="path15" />
  <path
     class="cls-2"
     d="M-256.22,1142.09c196.88-181,405.85-355.45,648-472.7,10-4.72,29.26-13.25,39.52-17.89,10.53-4.31,23.86-9.82,34.39-14.14,7.92-2.83,26.92-10.12,34.86-12.93,8.26-2.79,21.09-6.91,29.43-9.71C666.68,571,824,563.1,950.3,640.58c57,34.26,102.61,84,142.88,136.18,88.42,117.27,158.41,225.49,298.32,288.3a583.68,583.68,0,0,0,135.21,42.33c322.93,58.68,685.65-134.77,948.73-307.05l1.3,2c-110.34,72.53-224.63,139.56-344.64,194.88-29.74,13.76-60.58,26.94-91.09,39-162.22,63.68-340.66,105.45-514.77,73.74a582.65,582.65,0,0,1-124.45-37.52c-107.23-44.71-183.58-122.82-251.33-214.78-49.44-65.59-96.15-135-161.14-186.49-131.16-105.33-305-102.86-458.51-53.73-10,3.43-25.1,8-35.14,11.82l-23.18,8.61c-1.92.72-3.86,1.42-5.78,2.16-8.95,3.61-19.82,8.21-28.59,11.76-79.58,33.92-155.58,76.36-228.43,122.91C43,881.71-109,1009.88-254.17,1144.28l-2.05-2.19Z"
     id="path16" />
  <path
     class="cls-2"
     d="M-260.83,1175.38c230.7-220,590-527.19,914.12-565.55,45.15-5.28,91.23-5.5,136.25,1.3,3.74.66,13.39,2.18,16.86,2.79,4.48.9,15.1,3.28,19.75,4.24,4,1,8,2.11,12,3.15,3.61,1,8.49,2.14,12,3.35a417.77,417.77,0,0,1,46.7,17c76.9,32.73,137.83,92.49,189.72,156.57,62.21,76.6,121.06,158.23,202.21,216.19,46.63,33.94,99.18,59.64,154.09,77.12,170.55,54.82,355.63,27.13,522.12-29.42,89.89-30.57,176.67-69.87,260.62-114.1,87.64-46.26,172.3-98,254.72-153l1.41,2.1c-284.3,188.94-691.76,407.17-1039.7,297-55.17-17.57-108-43.38-154.86-77.49-81.36-58.08-140.43-139.9-202.75-216.64-51.63-63.74-112.22-123.22-188.7-155.76a418.68,418.68,0,0,0-46.38-16.91c-3.57-1.25-8.29-2.31-11.89-3.32-4-1-8-2.16-12-3.13-4.34-.88-15.24-3.31-19.62-4.22-4.32-.75-12.61-2-16.76-2.76-44.78-6.76-90.56-6.53-135.5-1.27-254.25,30.76-517.17,221.21-710,382.42-10.39,9-31.7,26.93-42.41,36.18-25.5,22.24-62.8,55.61-87.62,78.54-22,19.73-50.9,47.74-72.31,67.76l-2.07-2.17Z"
     id="path17" />
  <path
     class="cls-2"
     d="M-265.45,1208.68c70.34-68.94,144-138.17,219-201.81,127.5-108.23,263.36-209.2,413.25-284.33,10.41-4.89,23.22-11.23,33.63-16.07,7.69-3.31,26.43-11.66,34.14-15,21.06-8.54,42.47-16.76,63.93-24.12,9.71-3.22,19.86-6.22,29.63-9.35l3-.93,3-.81C685.35,612.49,843.85,618,973.38,715.72c66.51,50,117.17,116.85,171.77,178.76,95.88,112.3,204.82,187,351.21,216.47,138.21,28.1,281.83,9.09,415.78-30.94,110.87-33.29,217.08-80.79,319-135.34,87.43-46.91,171.87-99.24,254-154.83l1.5,2.23C2214,976.18,1834.27,1181.74,1495.8,1113.69,1348.7,1084.1,1239.33,1009.1,1143,896.36,1088.5,834.55,1038,767.87,971.67,718c-128.81-97.12-286.42-102.48-436.76-58.9-27.7,8.18-55.16,17.4-81.94,28.24l-11.52,4.58-5.75,2.29c-1.91.79-3.79,1.64-5.68,2.47l-22.7,10-5.67,2.49c-1.89.83-3.73,1.77-5.6,2.65C220.21,794.72,63.87,914.25-82,1041.61c-42.51,37-87.1,78.59-128,117.31-16.31,15.71-38.06,37.15-53.34,51.9l-2.11-2.14Z"
     id="path18" />
  <path
     class="cls-2"
     d="M-270.06,1242c142.32-144.09,293.54-282.29,461.43-396.17,5.63-4.08,24.85-16.24,31.18-20.48L233,818.55c1.29-.91,3.92-2.5,5.25-3.33,10.23-6.15,27-16.68,37.14-22.71,16.63-9.57,37.28-21.61,54.24-30.42C480.85,680.91,661,622.76,831.53,672.72c274.73,81.61,295.17,371.15,664.44,442.89,128.44,24.15,261.41,8.85,386.49-25.92,91.71-25.45,180.38-61.33,265.93-102.88,119.11-58.06,232.47-127.33,341.7-202.21l1.61,2.34c-274.31,187.74-653.94,395.08-996.26,331.51-145.91-27.5-255.1-96.26-355.43-203.61-68.18-71.47-131.19-151.19-218.35-200.63C732.91,606.38,510.59,667.52,331,764.71c-17,8.75-37.5,20.87-54.12,30.35-12.34,7.5-30.12,18.31-42.31,26C126.63,889.91,25.38,970.46-70.35,1055.37c-41.83,37.37-87,79.37-127.1,118.66-21.34,20.29-49.7,49.43-70.47,70l-2.14-2.1Z"
     id="path19" />
  <path
     class="cls-3"
     d="M-273.59,1276.32c552.76-580.5,887.09-635.87,1090-579.95,238.42,65.72,290.33,283.77,546.57,387.69C1735,1235,2180.22,1000.13,2495.83,780.58"
     id="path20" />
  <path
     class="cls-4"
     d="M1477.66,514.9C1231.84,229,800.8,196.52,514.9,442.34S196.51,1119.2,442.33,1405.1s676.87,318.38,962.77,72.56S1723.48,800.8,1477.66,514.9Zm-377.8,994.43c-325.4,54.84-633.65-164.49-688.49-489.89S575.86,385.79,901.26,331s633.65,164.49,688.49,489.89S1425.26,1454.49,1099.86,1509.33Z"
     id="path21" />
  <path
     class="cls-5"
     d="M527,1070.56c4,3.24,8.15,5.92,12.56,8.84,36.65,23.56,76.19,42.62,117.13,58.49,146,57,309.84,62.25,457,5.37a637.59,637.59,0,0,0,143.12-76.21c126.86-89.86,219-227.42,267.28-375.36,4.46-13.91,8.58-28,11.9-42.3-.74,14.69-2.32,29.38-4.27,44-23.19,165.37-95.43,324.09-213.49,444.68-72.54,74.1-160.89,132.42-257,171.2-184.55,74.93-395.46,71.16-583.42,8.58a645.12,645.12,0,0,1-88.58-36.44,127,127,0,0,1-58.62-169.71c34.72-74,135-94.72,196.41-41.17Z"
     id="path22" />
</svg>
